<?xml version="1.0" encoding="UTF-8"?>
<!DOCTYPE svg PUBLIC "-//W3C//DTD SVG 1.1//EN" "http://www.w3.org/Graphics/SVG/1.1/DTD/svg11.dtd">
<svg version="1.1" xmlns="http://www.w3.org/2000/svg" xmlns:xlink="http://www.w3.org/1999/xlink" x="0px" y="0px" width="700" height="394" viewBox="0, 0, 700, 394">
  <g id="Background">
    <rect x="0" y="0" width="700" height="394" fill="#F8F8F8"/>
  </g>
  <g id="Layer 1">
    <path d="M130.655,36.631 L552.6,36.631 L552.6,238.014 L130.655,238.014 z" fill-opacity="0" stroke="#666666" stroke-width="10"/>
    <text transform="matrix(1, 0, 0, 1, 617.159, 373.662)">
      <tspan x="-31.935" y="2.03" font-family="Foro-Light" font-size="11" fill="#666666">www.vzhurudolu.cz</tspan>
    </text>
    <path d="M171.5,72.5 L513.5,72.5 L513.5,200.5 L171.5,200.5 z" fill-opacity="0" stroke="#999999" stroke-width="3" stroke-dasharray="9,6"/>
    <text transform="matrix(1, 0, 0, 1, 345.401, 248)">
      <tspan x="-15.62" y="3" font-family="Foro-Light" font-size="10" fill="#999999">border</tspan>
    </text>
    <text transform="matrix(1, 0, 0, 1, 345.401, 216)">
      <tspan x="-19.065" y="1" font-family="Foro-Light" font-size="10" fill="#999999">padding</tspan>
    </text>
    <text transform="matrix(1, 0, 0, 1, 342, 137.5)">
      <tspan x="-17.76" y="1" font-family="Foro-Light" font-size="10" fill="#999999">content</tspan>
    </text>
    <g>
      <g>
        <path d="M137.155,324.726 L547.1,324.726" fill-opacity="0" stroke="#000000" stroke-width="1" stroke-dasharray="6,5"/>
        <path d="M139.155,321.726 L132.155,324.726 L139.155,327.726 M137.155,324.726 L132.155,324.726 M131.155,319.726 L131.155,329.726" fill-opacity="0" stroke="#000000" stroke-width="1" stroke-opacity="1"/>
        <path d="M545.1,327.726 L552.1,324.726 L545.1,321.726 M547.1,324.726 L552.1,324.726 M553.1,329.726 L553.1,319.726" fill-opacity="0" stroke="#000000" stroke-width="1" stroke-opacity="1"/>
      </g>
      <g>
        <path d="M277.726,316.474 L405.53,316.474 L405.53,331.978 L277.726,331.978 z" fill="#FFFFFF"/>
        <text fill="#222222" transform="matrix(1, 0, -0, 1, 341.628, 324.226)">
          <tspan x="-61.902" y="4.26" font-family="Foro-Light" font-size="12">box-sizing: border-box</tspan>
        </text>
      </g>
    </g>
    <g>
      <g>
        <path d="M177.5,268.899 L507.5,268.899" fill-opacity="0" stroke="#000000" stroke-width="1" stroke-dasharray="6,5"/>
        <path d="M179.5,265.899 L172.5,268.899 L179.5,271.899 M177.5,268.899 L172.5,268.899 M171.5,263.899 L171.5,273.899" fill-opacity="0" stroke="#000000" stroke-width="1" stroke-opacity="1"/>
        <path d="M505.5,271.899 L512.5,268.899 L505.5,265.899 M507.5,268.899 L512.5,268.899 M513.5,273.899 L513.5,263.899" fill-opacity="0" stroke="#000000" stroke-width="1" stroke-opacity="1"/>
      </g>
      <g>
        <path d="M275.128,260.647 L408.872,260.647 L408.872,276.151 L275.128,276.151 z" fill="#FFFFFF"/>
        <text fill="#222222" transform="matrix(1, 0, -0, 1, 342, 268.399)">
          <tspan x="-64.872" y="4.26" font-family="Foro-Light" font-size="12">box-sizing: content-box</tspan>
        </text>
      </g>
    </g>
    <g>
      <g>
        <path d="M150.499,296.663 L535.029,296.85" fill-opacity="0" stroke="#000000" stroke-width="1" stroke-dasharray="6,5"/>
        <path d="M152.5,293.664 L145.499,296.661 L152.497,299.664 M150.499,296.663 L145.499,296.661 M144.501,291.66 L144.496,301.66" fill-opacity="0" stroke="#000000" stroke-width="1" stroke-opacity="1"/>
        <path d="M533.028,299.849 L540.029,296.852 L533.031,293.849 M535.029,296.85 L540.029,296.852 M541.027,301.853 L541.031,291.853" fill-opacity="0" stroke="#000000" stroke-width="1" stroke-opacity="1"/>
      </g>
      <g>
        <path d="M274.066,288.505 L410.462,288.505 L410.462,304.009 L274.066,304.009 z" fill="#FFFFFF"/>
        <text fill="#222222" transform="matrix(1, 0, -0, 1, 342.264, 296.257)">
          <tspan x="-66.198" y="4.26" font-family="Foro-Light" font-size="12">box-sizing: padding-box</tspan>
        </text>
      </g>
    </g>
  </g>
  <g id="Layer 2" display="none"/>
  <defs/>
</svg>
