<?xml version="1.0" encoding="UTF-8"?>
<!DOCTYPE svg PUBLIC "-//W3C//DTD SVG 1.1//EN" "http://www.w3.org/Graphics/SVG/1.1/DTD/svg11.dtd">
<svg version="1.1" xmlns="http://www.w3.org/2000/svg" xmlns:xlink="http://www.w3.org/1999/xlink" x="0" y="0" width="1920" height="1080" viewBox="0, 0, 1920, 1080">
  <g id="Background">
    <rect x="0" y="0" width="1920" height="1080" fill="#2E2E2C"/>
  </g>
  <g id="Layer_1">
    <path d="M631.844,506.399 C631.844,503.259 630.193,500.373 627.481,498.815 L555.244,457.244 C554.022,456.526 552.649,456.149 551.264,456.091 C551.142,456.091 550.621,456.091 550.517,456.091 C549.138,456.149 547.77,456.526 546.531,457.244 L474.288,498.815 C471.594,500.373 469.919,503.259 469.919,506.399 L470.076,618.347 C470.076,619.905 470.887,621.354 472.254,622.118 C473.598,622.918 475.255,622.918 476.588,622.118 L519.526,597.529 C522.237,595.919 523.888,593.074 523.888,589.963 L523.888,537.662 C523.888,534.539 525.545,531.654 528.245,530.107 L546.531,519.574 C547.892,518.792 549.381,518.404 550.905,518.404 C552.388,518.404 553.918,518.792 555.244,519.574 L573.518,530.107 C576.224,531.654 577.881,534.539 577.881,537.662 L577.881,589.963 C577.881,593.074 579.555,595.936 582.255,597.529 L625.175,622.118 C626.52,622.918 628.2,622.918 629.538,622.118 C630.865,621.354 631.705,619.905 631.705,618.347 L631.844,506.399" fill="#FFFFFE"/>
    <path d="M1010.891,564.69 C1010.891,565.466 1010.474,566.191 1009.802,566.579 L984.987,580.878 C984.315,581.266 983.481,581.266 982.809,580.878 L957.994,566.579 C957.316,566.191 956.905,565.466 956.905,564.69 L956.905,536.04 C956.905,535.258 957.316,534.539 957.994,534.145 L982.803,519.817 C983.481,519.429 984.315,519.429 984.987,519.817 L1009.802,534.145 C1010.474,534.539 1010.891,535.258 1010.891,536.04 L1010.891,564.69 z M1017.595,352.504 C1016.245,351.757 1014.593,351.774 1013.261,352.556 C1011.928,353.338 1011.106,354.769 1011.106,356.316 L1011.106,467.181 C1011.106,468.27 1010.526,469.284 1009.582,469.828 C1008.637,470.373 1007.473,470.373 1006.528,469.828 L988.434,459.405 C985.734,457.847 982.415,457.852 979.715,459.405 L907.443,501.115 C904.743,502.673 903.08,505.553 903.08,508.67 L903.08,592.1 C903.08,595.223 904.743,598.103 907.443,599.661 L979.709,641.4 C982.409,642.958 985.734,642.958 988.44,641.4 L1060.718,599.661 C1063.418,598.103 1065.08,595.223 1065.08,592.1 L1065.08,384.126 C1065.08,380.963 1063.365,378.049 1060.602,376.508 L1017.595,352.504" fill="#FFFFFE"/>
    <path d="M1276.154,535.287 C1278.843,533.728 1280.494,530.854 1280.494,527.743 L1280.494,507.523 C1280.494,504.417 1278.843,501.538 1276.149,499.979 L1204.346,458.287 C1201.64,456.717 1198.309,456.711 1195.597,458.275 L1123.355,499.985 C1120.655,501.543 1118.992,504.423 1118.992,507.54 L1118.992,590.948 C1118.992,594.088 1120.678,596.979 1123.401,598.532 L1195.198,639.442 C1197.845,640.954 1201.09,640.965 1203.755,639.488 L1247.18,615.351 C1248.558,614.586 1249.416,613.138 1249.422,611.568 C1249.433,609.992 1248.593,608.537 1247.232,607.755 L1174.531,566.028 C1173.17,565.246 1172.335,563.804 1172.335,562.239 L1172.335,536.098 C1172.335,534.539 1173.17,533.096 1174.52,532.32 L1197.15,519.278 C1198.494,518.496 1200.157,518.496 1201.501,519.278 L1224.143,532.32 C1225.493,533.096 1226.328,534.539 1226.328,536.098 L1226.328,556.666 C1226.328,558.23 1227.162,559.673 1228.512,560.449 C1229.868,561.231 1231.531,561.225 1232.88,560.443 L1276.154,535.287" fill="#FFFFFE"/>
    <path d="M763.259,457.835 C765.959,456.277 769.284,456.277 771.984,457.835 L844.244,499.533 C846.944,501.092 848.607,503.977 848.607,507.094 L848.607,590.56 C848.607,593.677 846.944,596.556 844.244,598.12 L771.984,639.853 C769.284,641.412 765.959,641.412 763.253,639.853 L691.01,598.12 C688.31,596.556 686.647,593.677 686.647,590.56 L686.647,507.094 C686.647,503.977 688.31,501.092 691.016,499.533 L763.259,457.835" fill="#78B743"/>
    <path d="M1416.457,641.041 C1413.966,641.041 1411.492,640.392 1409.313,639.129 L1386.561,625.67 C1383.166,623.769 1384.823,623.097 1385.941,622.703 C1390.478,621.133 1391.393,620.768 1396.231,618.028 C1396.735,617.744 1397.401,617.848 1397.923,618.155 L1415.397,628.532 C1416.034,628.885 1416.926,628.885 1417.511,628.532 L1485.646,589.204 C1486.284,588.839 1486.689,588.114 1486.689,587.361 L1486.689,508.722 C1486.689,507.957 1486.284,507.239 1485.635,506.845 L1417.523,467.551 C1416.891,467.181 1416.057,467.181 1415.42,467.551 L1347.325,506.856 C1346.665,507.239 1346.248,507.975 1346.248,508.722 L1346.248,587.361 C1346.248,588.114 1346.665,588.821 1347.32,589.18 L1365.987,599.963 C1376.115,605.026 1382.32,599.065 1382.32,593.074 L1382.32,515.431 C1382.32,514.336 1383.201,513.473 1384.296,513.473 L1392.94,513.473 C1394.018,513.473 1394.91,514.336 1394.91,515.431 L1394.91,593.074 C1394.91,606.591 1387.552,614.343 1374.736,614.343 C1370.796,614.343 1367.696,614.343 1359.041,610.079 L1341.172,599.789 C1336.758,597.24 1334.029,592.465 1334.029,587.361 L1334.029,508.722 C1334.029,503.618 1336.758,498.844 1341.172,496.306 L1409.313,456.931 C1413.624,454.492 1419.354,454.492 1423.63,456.931 L1491.765,496.306 C1496.18,498.855 1498.92,503.618 1498.92,508.722 L1498.92,587.361 C1498.92,592.465 1496.18,597.222 1491.765,599.789 L1423.63,639.129 C1421.451,640.392 1418.983,641.041 1416.457,641.041" fill="#78B743"/>
    <path d="M1437.506,586.869 C1407.685,586.869 1401.439,573.178 1401.439,561.701 C1401.439,560.605 1402.32,559.736 1403.409,559.736 L1412.222,559.736 C1413.206,559.736 1414.023,560.443 1414.18,561.405 C1415.507,570.374 1419.475,574.899 1437.506,574.899 C1451.857,574.899 1457.969,571.654 1457.969,564.035 C1457.969,559.644 1456.237,556.388 1433.931,554.203 C1415.286,552.361 1403.757,548.242 1403.757,533.322 C1403.757,519.574 1415.344,511.376 1434.771,511.376 C1456.602,511.376 1467.402,518.954 1468.769,535.211 C1468.821,535.767 1468.624,536.306 1468.253,536.723 C1467.877,537.117 1467.355,537.355 1466.811,537.355 L1457.964,537.355 C1457.048,537.355 1456.237,536.7 1456.052,535.814 C1453.931,526.376 1448.769,523.363 1434.771,523.363 C1419.099,523.363 1417.28,528.821 1417.28,532.911 C1417.28,537.871 1419.429,539.313 1440.588,542.112 C1461.527,544.881 1471.475,548.798 1471.475,563.514 C1471.475,578.363 1459.099,586.869 1437.506,586.869" fill="#78B743"/>
    <path d="M1150.906,531.382 C1151.427,531.08 1152.064,531.08 1152.58,531.382 L1166.45,539.383 C1166.966,539.684 1167.285,540.234 1167.285,540.831 L1167.285,556.845 C1167.285,557.442 1166.966,557.998 1166.45,558.294 L1152.58,566.295 C1152.064,566.596 1151.427,566.596 1150.906,566.295 L1137.053,558.294 C1136.531,557.998 1136.212,557.442 1136.212,556.845 L1136.212,540.831 C1136.212,540.234 1136.531,539.684 1137.053,539.383 L1150.906,531.382" fill="#78B743"/>
    <path d="M1530.797,477.331 L1533.091,477.331 C1534.963,477.331 1535.316,476.01 1535.316,475.251 C1535.316,473.229 1533.925,473.229 1533.161,473.229 L1530.797,473.229 L1530.797,477.331 z M1528.016,470.871 L1533.091,470.871 C1534.829,470.871 1538.236,470.871 1538.236,474.765 C1538.236,477.47 1536.498,478.027 1535.449,478.374 C1537.471,478.513 1537.604,479.834 1537.883,481.711 C1538.027,482.888 1538.236,484.91 1538.647,485.599 L1535.525,485.599 C1535.449,484.91 1534.963,481.155 1534.963,480.947 C1534.76,480.112 1534.476,479.695 1533.439,479.695 L1530.866,479.695 L1530.866,485.599 L1528.016,485.599 L1528.016,470.871 z M1521.938,478.2 C1521.938,484.313 1526.874,489.249 1532.917,489.249 C1539.03,489.249 1543.966,484.209 1543.966,478.2 C1543.966,472.088 1538.966,467.221 1532.917,467.221 C1526.938,467.221 1521.938,472.013 1521.938,478.2 z M1546.081,478.235 C1546.081,485.46 1540.177,491.37 1532.952,491.37 C1525.791,491.37 1519.818,485.53 1519.818,478.235 C1519.818,470.802 1525.936,465.101 1532.952,465.101 C1540.038,465.101 1546.081,470.802 1546.081,478.235" fill="#78B743"/>
  </g>
</svg>
