<?xml version="1.0" encoding="UTF-8"?>
<!DOCTYPE svg PUBLIC "-//W3C//DTD SVG 1.1//EN" "http://www.w3.org/Graphics/SVG/1.1/DTD/svg11.dtd">
<svg version="1.1" xmlns="http://www.w3.org/2000/svg" xmlns:xlink="http://www.w3.org/1999/xlink" x="0" y="0" width="1920" height="1080" viewBox="0, 0, 1920, 1080">
  <g id="Background">
    <rect x="0" y="0" width="1920" height="1080" fill="#DFDED1"/>
  </g>
  <g id="Layer_1"/>
  <g id="Mobile">
    <g>
      <path d="M617.667,283.333 L1367.585,283.333 L1367.585,866.616 L617.667,866.616 L617.667,283.333 z" fill="#FFFFFF"/>
      <path d="M629.731,419.419 L824.691,419.419 L824.691,790.035 L629.731,790.035 L629.731,419.419 z" fill="#C1CCB6"/>
      <path d="M629.731,294.915 L1353.59,294.915 L1353.59,407.837 L629.731,407.837 L629.731,294.915 z" fill="#5FA316"/>
      <path d="M839.65,419.419 L1353.59,419.419 L1353.59,790.035 L839.65,790.035 L839.65,419.419 z" fill="#FFFFFF"/>
      <path d="M629.731,803.064 L1353.59,803.064 L1353.59,843.601 L629.731,843.601 L629.731,803.064 z" fill="#5FA316"/>
      <path d="M868.605,451.269 L1321.258,451.269 L1321.258,465.746 L868.605,465.746 L868.605,451.269 z" fill="#949D8B"/>
      <path d="M868.605,477.328 L1230.052,477.328 L1230.052,491.805 L868.605,491.805 L868.605,477.328 z" fill="#949D8B"/>
      <path d="M868.605,529.446 L1321.258,529.446 L1321.258,543.923 L868.605,543.923 L868.605,529.446 z" fill="#C1CCB6"/>
      <path d="M868.605,554.057 L1295.199,554.057 L1295.199,568.534 L868.605,568.534 L868.605,554.057 z" fill="#C1CCB6"/>
      <path d="M870.294,579.392 L1322.947,579.392 L1322.947,593.869 L870.294,593.869 L870.294,579.392 z" fill="#C1CCB6"/>
      <path d="M870.294,604.003 L1296.888,604.003 L1296.888,618.48 L870.294,618.48 L870.294,604.003 z" fill="#C1CCB6"/>
      <path d="M870.294,629.338 L1322.947,629.338 L1322.947,643.815 L870.294,643.815 L870.294,629.338 z" fill="#C1CCB6"/>
      <path d="M870.294,653.949 L1296.888,653.949 L1296.888,668.427 L870.294,668.427 L870.294,653.949 z" fill="#C1CCB6"/>
      <path d="M870.294,682.904 L1322.947,682.904 L1322.947,697.381 L870.294,697.381 L870.294,682.904 z" fill="#C1CCB6"/>
      <path d="M870.294,707.515 L1296.888,707.515 L1296.888,721.992 L870.294,721.992 L870.294,707.515 z" fill="#C1CCB6"/>
    </g>
  </g>
  <g id="Mobile_overlay" opacity="0.634">
    <path d="M882.5,229.5 L1394.5,229.5 L1394.5,881.5 L882.5,881.5 L882.5,229.5 z" fill="#DFDED1"/>
    <path d="M502.5,679.5 L950.5,679.5 L950.5,873.5 L502.5,873.5 L502.5,679.5 z" fill="#DFDED1"/>
  </g>
  <g id="Arrows">
    <g>
      <path d="M637.8,160.5 L842.2,160.5" fill-opacity="0" stroke="#1D1B01" stroke-width="10"/>
      <path d="M637.8,160.5 L621,160.5 M621,146.5 L621,174.5" fill-opacity="0" stroke="#1D1B01" stroke-width="10" stroke-opacity="1"/>
      <path d="M842.2,160.5 L859,160.5 M859,174.5 L859,146.5" fill-opacity="0" stroke="#1D1B01" stroke-width="10" stroke-opacity="1"/>
    </g>
    <g>
      <path d="M638.3,922.5 L1345.2,922.5" fill-opacity="0" stroke="#1D1B01" stroke-width="10"/>
      <path d="M638.3,922.5 L621.5,922.5 M621.5,908.5 L621.5,936.5" fill-opacity="0" stroke="#1D1B01" stroke-width="10" stroke-opacity="1"/>
      <path d="M1345.2,922.5 L1362,922.5 M1362,936.5 L1362,908.5" fill-opacity="0" stroke="#1D1B01" stroke-width="10" stroke-opacity="1"/>
    </g>
    <text transform="matrix(1, 0, 0, 1, 739.5, 111.5)">
      <tspan x="-103.6" y="-4.5" font-family="Foro-Light" font-size="25" fill="#1D1B01">Vizuální viewport</tspan>
    </text>
    <text transform="matrix(1, 0, 0, 1, 992.083, 972.167)">
      <tspan x="-116.887" y="-1.167" font-family="Foro-Light" font-size="25" fill="#1D1B01">Layoutový viewport</tspan>
    </text>
    <path d="M850.462,221.763 L635.689,221.763 C610.377,221.763 589.667,242.023 589.667,266.786 L589.667,656.978 C589.667,681.74 610.377,702 635.689,702 L850.462,702 C875.774,702 896.484,681.74 896.484,656.978 L896.484,266.786 C896.484,242.023 875.774,221.763 850.462,221.763 z M681.712,244.274 L804.439,244.274 L804.439,259.282 L681.712,259.282 L681.712,244.274 z M743.076,671.985 C726.124,671.985 712.394,658.554 712.394,641.97 C712.394,625.387 726.124,611.956 743.076,611.956 C760.027,611.956 773.757,625.387 773.757,641.97 C773.757,658.554 760.027,671.985 743.076,671.985 z M865.803,581.941 L620.348,581.941 L620.348,281.793 L865.803,281.793 L865.803,581.941 z" fill="#746F28"/>
  </g>
</svg>
