<?xml version="1.0" encoding="UTF-8"?>
<!DOCTYPE svg PUBLIC "-//W3C//DTD SVG 1.1//EN" "http://www.w3.org/Graphics/SVG/1.1/DTD/svg11.dtd">
<svg version="1.1" xmlns="http://www.w3.org/2000/svg" xmlns:xlink="http://www.w3.org/1999/xlink" x="0" y="0" width="1920" height="1080" viewBox="0, 0, 1920, 1080">
  <g id="Background">
    <rect x="0" y="0" width="1920" height="1080" fill="#FFFFFF"/>
  </g>
  <defs>
    <clipPath id="Clip_1">
      <path d="M1534.227,705.148 L1802.711,705.148 L1802.711,351.039 L1534.227,351.039 z"/>
    </clipPath>
    <clipPath id="Clip_2">
      <path d="M694.711,643.501 L1225.289,643.501 L1225.289,436.499 L694.711,436.499 z"/>
    </clipPath>
  </defs>
  <g id="Layer_1">
    <g>
      <path d="M0,0 L1920,0 L1920,1080 L0,1080 z" fill="#000000"/>
      <path d="M0,0 L1920,0 L1920,1080 L0,1080 z" fill="#2E2C09"/>
    </g>
    <g>
      <path d="M284.619,626.533 L284.12,626.533 L284.372,626.533 C247.625,626.508 216.346,621.024 204.089,613.318 L219.111,636.83 L224.594,710.035 C224.594,710.035 284.46,751.413 343.646,710.035 L347.988,636.032 L360.932,615.322 C346.775,621.96 317.848,626.512 284.372,626.535 L284.622,626.535 z" fill="#FFFFFF"/>
      <path d="M286.559,628.473 L286.06,628.473 L286.312,628.473 C249.566,628.448 218.286,622.965 206.03,615.258 L221.051,638.77 L226.534,711.975 C226.534,711.975 286.4,753.353 345.586,711.975 L349.928,637.973 L362.872,617.262 C348.716,623.9 319.788,628.452 286.312,628.475 L286.563,628.475 z" fill-opacity="0" stroke="#000000" stroke-width="1.153"/>
      <path d="M365.747,526.45 C363.134,528.382 360.579,529.878 358.087,530.933 C355.553,531.999 352.829,532.539 350.08,532.521 C347.414,532.521 345.351,531.95 343.894,530.813 C342.437,529.674 341.709,528.11 341.709,526.114 L341.709,525.658 C341.709,525.518 341.727,525.34 341.762,525.138 C341.901,523.919 342.449,522.513 343.396,520.927 C344.431,519.21 345.573,517.56 346.814,515.986 C348.194,514.222 349.618,512.493 351.083,510.799 C352.499,509.158 353.894,507.499 355.27,505.824 C356.408,504.449 357.471,503.014 358.454,501.525 C359.298,500.221 359.719,499.165 359.719,498.352 C359.736,497.903 359.54,497.473 359.191,497.19 C358.84,496.909 358.258,496.763 357.453,496.763 C356.048,496.763 354.601,497.12 353.109,497.832 C351.521,498.605 350.035,499.567 348.683,500.702 C347.16,501.965 345.735,503.341 344.418,504.817 C343.039,506.358 341.738,507.967 340.522,509.639 C339.34,511.264 338.234,512.944 337.208,514.672 C336.298,516.196 335.445,517.753 334.651,519.34 C334.443,519.787 334.142,520.419 333.756,521.23 C333.366,522.045 332.949,522.963 332.493,523.978 C332.022,525.029 331.538,526.075 331.042,527.115 C330.566,528.128 330.102,529.147 329.651,530.171 L328.521,532.732 C328.29,533.253 328.053,533.771 327.809,534.286 C327.631,534.655 327.342,535.342 326.94,536.36 C326.47,537.548 326.005,538.737 325.545,539.929 L323.884,544.232 C323.31,545.736 322.763,547.162 322.254,548.503 L320.914,552.042 C320.525,553.058 320.279,553.751 320.174,554.116 C319.825,555.175 319.412,556.169 318.936,557.108 C318.463,558.039 317.922,558.866 317.307,559.578 C316.693,560.288 315.989,560.858 315.199,561.283 C314.383,561.72 313.469,561.941 312.543,561.927 C311.276,561.927 310.234,561.629 309.406,561.039 C308.583,560.449 308.17,559.32 308.17,557.653 C308.17,556.838 308.277,556.006 308.488,555.154 C308.698,554.298 308.961,553.452 309.278,552.62 C309.594,551.784 309.92,550.973 310.252,550.181 C310.585,549.383 310.892,548.623 311.171,547.891 C313.079,543.802 315.01,539.724 316.965,535.658 C318.9,531.634 320.787,527.586 322.627,523.516 C323.005,522.68 323.349,521.861 323.717,521.032 L323.389,521.352 C321.241,523.397 318.964,525.302 316.573,527.057 C314.473,528.606 312.212,529.925 309.831,530.992 C307.603,531.968 305.432,532.455 303.327,532.455 C301.887,532.455 300.688,532.232 299.724,531.785 C298.811,531.378 298.013,530.75 297.403,529.958 C296.802,529.139 296.381,528.202 296.167,527.208 C296.082,526.849 296.031,526.471 295.975,526.094 C295.362,526.564 294.739,527.022 294.112,527.455 C292.094,528.87 289.943,530.085 287.688,531.083 C285.581,531.999 283.685,532.455 282.001,532.455 C280.317,532.455 278.947,531.907 277.894,530.807 C276.84,529.709 276.312,527.839 276.312,525.194 C276.312,523.322 276.596,521.147 277.154,518.667 C276.16,520.371 275.016,521.984 273.736,523.485 C272.341,525.137 270.77,526.631 269.05,527.942 C267.249,529.306 265.262,530.405 263.15,531.205 C260.973,532.039 258.602,532.455 256.04,532.455 C254.912,532.461 253.788,532.317 252.697,532.028 C251.66,531.76 250.696,531.26 249.88,530.565 C249.073,529.874 248.425,528.949 247.932,527.79 C247.439,526.63 247.197,525.175 247.197,523.427 C247.197,523.386 247.265,522.767 247.404,521.562 C247.546,520.363 247.992,518.473 248.747,515.887 C249.504,513.31 250.67,509.959 252.247,505.852 C253.83,501.74 256.056,496.761 258.939,490.906 C259.674,489.355 260.524,488.247 261.489,487.578 C262.402,486.923 263.498,486.571 264.622,486.571 C265.115,486.571 265.623,486.643 266.149,486.784 C266.679,486.928 267.168,487.149 267.626,487.456 C268.082,487.758 268.452,488.148 268.732,488.614 C269.011,489.082 269.153,489.619 269.153,490.23 C269.153,490.636 269.1,491.024 268.996,491.391 C268.817,492.083 268.441,492.987 267.866,494.103 C267.284,495.223 266.609,496.505 265.837,497.947 C265.008,499.497 264.191,501.055 263.39,502.617 C262.515,504.31 261.716,506.04 260.994,507.803 C260.257,509.587 259.624,511.409 259.096,513.265 C258.584,515.023 258.283,516.835 258.202,518.663 C258.202,519.397 258.376,520.068 258.728,520.677 C259.079,521.288 259.657,521.593 260.466,521.593 C262.748,521.593 264.925,520.86 266.997,519.399 C269.152,517.85 271.084,516.013 272.736,513.937 C274.512,511.729 276.105,509.382 277.502,506.917 C278.785,504.682 279.97,502.393 281.054,500.056 C281.722,498.672 282.312,497.184 282.82,495.601 C283.293,494.107 283.846,492.64 284.477,491.206 C284.993,489.994 285.685,488.865 286.53,487.854 C287.239,486.987 288.305,486.492 289.425,486.509 C290.692,486.509 291.691,486.98 292.43,487.914 C293.166,488.849 293.534,489.969 293.534,491.266 C293.534,492 293.299,493.009 292.824,494.289 C292.269,495.771 291.672,497.236 291.033,498.684 C290.261,500.448 289.48,502.207 288.689,503.962 C287.844,505.836 287.063,507.738 286.348,509.666 C285.651,511.525 285.052,513.42 284.555,515.341 C284.104,517.023 283.866,518.755 283.846,520.497 C283.846,521.96 284.617,522.695 286.163,522.695 C287.254,522.695 288.602,522.328 290.216,521.595 C291.833,520.865 293.528,519.835 295.3,518.514 C295.742,518.186 296.189,517.839 296.631,517.476 C297.128,515.483 297.706,513.636 298.379,511.956 C299.605,508.796 300.851,505.644 302.116,502.501 L305.595,493.894 L321.55,454.537 C322.181,452.954 323.032,451.834 324.101,451.184 C325.172,450.532 326.251,450.208 327.342,450.208 C328.421,450.206 329.47,450.572 330.314,451.244 C331.211,451.937 331.659,453.055 331.659,454.601 C331.659,455.335 331.509,456.107 331.211,456.92 C330.912,457.737 330.533,458.608 330.077,459.543 C329.202,461.458 328.155,463.794 326.946,466.561 C324.166,472.933 321.445,479.33 318.783,485.752 C317.328,489.27 315.904,492.698 314.518,496.034 C313.205,499.19 311.906,502.353 310.622,505.522 C309.575,508.112 308.529,510.704 307.489,513.298 C307.057,514.367 306.68,515.457 306.358,516.564 C306.015,517.641 305.829,518.761 305.807,519.891 C305.807,520.499 305.909,520.988 306.121,521.352 C306.33,521.717 306.734,521.904 307.333,521.904 C308.069,521.904 308.989,521.647 310.095,521.139 C311.337,520.558 312.533,519.884 313.674,519.123 C314.957,518.293 316.294,517.336 317.677,516.255 C319.078,515.167 320.456,514.049 321.81,512.902 C323.145,511.774 324.454,510.614 325.735,509.424 C326.867,508.374 327.982,507.307 329.08,506.222 C329.311,505.993 329.588,505.814 329.891,505.696 C330.467,504.014 331.005,502.316 331.498,500.609 C331.781,499.875 332.167,498.841 332.658,497.497 C333.154,496.148 333.716,494.824 334.342,493.531 C334.917,492.322 335.632,491.185 336.475,490.145 C337.264,489.19 338.116,488.711 339.032,488.711 C340.433,488.711 341.455,489.027 342.086,489.654 C342.718,490.289 343.033,491.212 343.033,492.435 C343.033,492.677 342.998,493.063 342.926,493.591 C342.78,494.719 342.579,495.839 342.323,496.948 C342.239,497.342 342.125,497.73 341.983,498.108 C343.327,496.676 344.731,495.302 346.191,493.989 C347.668,492.653 349.234,491.42 350.877,490.296 C352.429,489.233 354.088,488.333 355.827,487.611 C357.428,486.938 359.145,486.586 360.881,486.575 C362.042,486.575 363.192,486.738 364.331,487.064 C365.422,487.366 366.455,487.85 367.385,488.496 C368.281,489.13 369.013,489.922 369.572,490.876 C370.133,491.829 370.414,492.939 370.414,494.202 C370.414,495.871 369.985,497.65 369.124,499.54 C368.262,501.432 367.183,503.333 365.885,505.24 C364.574,507.171 363.169,509.034 361.673,510.826 C360.286,512.495 358.873,514.142 357.435,515.768 C356.321,517.022 355.215,518.283 354.116,519.55 C353.223,520.59 352.757,521.29 352.722,521.659 C352.722,522.146 352.882,522.542 353.196,522.848 C353.514,523.151 354.04,523.306 354.777,523.306 C355.375,523.306 356.252,522.978 357.41,522.328 C358.568,521.68 360.194,520.549 362.282,518.945 C364.978,516.844 367.629,514.687 370.233,512.476 C372.811,510.3 375.373,508.107 377.921,505.896 L392.781,379.745 L392.68,379.745 C377.608,386.804 335.27,394.262 285.387,394.262 C235.512,394.262 193.17,386.804 178.099,379.745 L177.973,379.745 L189.262,495.535 C189.867,493.525 190.535,491.534 191.264,489.565 C192.779,485.491 194.528,481.508 196.503,477.636 C198.438,473.838 200.601,470.16 202.98,466.623 C205.235,463.268 207.726,460.077 210.434,457.075 C212.897,454.325 215.611,451.813 218.543,449.57 C221.315,447.478 224.117,445.839 226.94,444.657 C229.767,443.479 232.567,442.888 235.342,442.888 C238.535,442.888 241.624,443.743 244.608,445.453 C247.592,447.16 250.381,449.925 252.983,453.751 C253.578,454.603 253.957,455.47 254.11,456.344 C254.271,457.217 254.348,458.039 254.348,458.813 C254.348,460.645 253.902,462.089 253.008,463.144 C252.111,464.203 251.05,464.731 249.822,464.731 C248.696,464.731 247.653,464.153 246.686,462.995 C245.722,461.836 244.641,460.177 243.448,458.022 C242.327,456.068 241.087,454.657 239.734,453.782 C238.431,452.92 236.902,452.464 235.34,452.469 C232.881,452.469 230.258,453.466 227.468,455.457 C224.676,457.451 221.911,460.086 219.175,463.359 C216.437,466.635 213.814,470.379 211.303,474.586 C208.813,478.754 206.588,483.074 204.641,487.522 C202.774,491.75 201.234,496.115 200.034,500.578 C198.891,504.87 198.321,508.725 198.321,512.142 C198.321,513.281 198.401,514.451 198.558,515.648 C198.695,516.774 198.997,517.875 199.454,518.914 C199.893,519.889 200.488,520.691 201.245,521.323 C202,521.954 202.956,522.266 204.113,522.266 C205.411,522.266 206.885,521.839 208.535,520.984 C210.186,520.134 211.899,519.013 213.671,517.631 C215.538,516.165 217.321,514.596 219.014,512.932 C220.758,511.236 222.427,509.465 224.018,507.625 C225.46,505.965 226.83,504.244 228.126,502.468 C229.319,500.82 230.215,499.387 230.813,498.166 L235.71,483.827 C236.304,482.285 237.086,481.187 238.052,480.533 C239.018,479.883 240.01,479.557 241.027,479.557 C241.517,479.557 242.008,479.64 242.501,479.801 C242.994,479.964 243.432,480.219 243.821,480.562 C244.209,480.909 244.515,481.356 244.74,481.905 C244.969,482.454 245.082,483.094 245.082,483.827 C245.082,485.779 244.905,487.607 244.554,489.318 C244.208,491.012 243.761,492.683 243.213,494.322 C242.658,495.978 242.051,497.615 241.395,499.233 C240.706,500.937 240.056,502.656 239.447,504.391 C239.307,504.592 239.055,505.233 238.685,506.31 C237.615,509.465 236.598,512.639 235.633,515.828 C235.004,517.884 234.372,519.939 233.737,521.993 C233.1,524.042 232.477,526.095 231.868,528.153 C230.926,531.332 229.995,534.515 229.076,537.701 C228.893,538.355 228.7,539.006 228.498,539.655 C228.283,540.4 228.001,541.124 227.656,541.818 C227.268,542.612 226.808,543.369 226.284,544.081 C225.796,544.752 225.211,545.347 224.548,545.846 C223.992,546.286 223.307,546.533 222.598,546.549 C221.474,546.549 220.659,546.184 220.149,545.453 C219.641,544.719 219.387,543.376 219.387,541.424 L219.387,540.569 C219.387,540.286 219.406,539.981 219.439,539.657 C219.472,539.005 219.74,537.783 220.231,535.992 C220.723,534.207 221.307,532.183 221.994,529.925 C222.677,527.664 223.415,525.326 224.204,522.907 C224.996,520.485 225.706,518.322 226.337,516.411 C224.404,518.516 222.384,520.541 220.283,522.48 C218.176,524.436 215.942,526.25 213.595,527.911 C211.432,529.449 209.121,530.768 206.695,531.847 C204.377,532.862 202.149,533.372 200.007,533.372 C197.551,533.372 195.436,532.841 193.66,531.783 C193.34,531.593 193.043,531.378 192.741,531.164 L199.914,604.738 L204.089,611.274 C216.342,618.979 247.622,624.461 284.372,624.484 C317.848,624.461 346.775,619.911 360.93,613.273 L366.269,604.738 L376.572,517.287 C375.719,518.052 374.892,518.795 374.098,519.521 C371.434,521.972 368.647,524.287 365.747,526.455 z" fill="#FFFFFF"/>
      <path d="M367.688,528.39 C365.074,530.323 362.519,531.819 360.027,532.874 C357.493,533.94 354.769,534.48 352.02,534.461 C349.354,534.461 347.291,533.891 345.834,532.754 C344.377,531.615 343.649,530.051 343.649,528.054 L343.649,527.598 C343.649,527.459 343.667,527.28 343.702,527.078 C343.842,525.86 344.389,524.453 345.336,522.868 C346.371,521.151 347.513,519.5 348.754,517.926 C350.134,516.162 351.558,514.434 353.023,512.74 C354.439,511.099 355.834,509.44 357.21,507.765 C358.348,506.39 359.411,504.955 360.394,503.465 C361.238,502.161 361.659,501.106 361.659,500.293 C361.676,499.844 361.481,499.413 361.131,499.131 C360.78,498.849 360.198,498.704 359.393,498.704 C357.988,498.704 356.541,499.061 355.049,499.773 C353.461,500.545 351.975,501.508 350.623,502.643 C349.1,503.906 347.675,505.282 346.358,506.758 C344.979,508.298 343.678,509.907 342.462,511.58 C341.28,513.205 340.174,514.885 339.148,516.613 C338.238,518.137 337.385,519.694 336.591,521.281 C336.383,521.727 336.082,522.36 335.696,523.171 C335.306,523.986 334.889,524.903 334.433,525.918 C333.962,526.97 333.478,528.016 332.982,529.056 C332.506,530.069 332.043,531.087 331.591,532.112 L330.461,534.673 C330.23,535.194 329.993,535.712 329.749,536.227 C329.571,536.596 329.282,537.282 328.88,538.301 C328.411,539.489 327.945,540.678 327.485,541.869 L325.824,546.173 C325.25,547.676 324.703,549.103 324.194,550.443 L322.854,553.982 C322.466,554.999 322.219,555.692 322.114,556.056 C321.765,557.116 321.352,558.109 320.876,559.048 C320.403,559.98 319.862,560.806 319.247,561.518 C318.634,562.229 317.929,562.799 317.139,563.224 C316.323,563.66 315.409,563.882 314.483,563.868 C313.216,563.868 312.174,563.569 311.346,562.979 C310.523,562.39 310.11,561.26 310.11,559.594 C310.11,558.779 310.217,557.946 310.428,557.095 C310.638,556.239 310.901,555.393 311.218,554.561 C311.534,553.724 311.86,552.913 312.192,552.122 C312.526,551.324 312.832,550.564 313.111,549.832 C315.019,545.743 316.95,541.665 318.905,537.599 C320.84,533.575 322.727,529.527 324.567,525.456 C324.945,524.62 325.289,523.801 325.657,522.973 L325.329,523.293 C323.181,525.338 320.905,527.243 318.513,528.997 C316.413,530.546 314.152,531.865 311.771,532.932 C309.543,533.908 307.372,534.395 305.267,534.395 C303.827,534.395 302.628,534.172 301.664,533.726 C300.751,533.319 299.953,532.69 299.343,531.898 C298.742,531.079 298.321,530.142 298.107,529.149 C298.022,528.79 297.971,528.411 297.915,528.035 C297.302,528.505 296.679,528.962 296.053,529.395 C294.034,530.811 291.883,532.026 289.628,533.023 C287.521,533.939 285.626,534.395 283.941,534.395 C282.257,534.395 280.887,533.848 279.834,532.748 C278.78,531.65 278.252,529.779 278.252,527.135 C278.252,525.262 278.536,523.087 279.095,520.608 C278.101,522.312 276.956,523.924 275.676,525.425 C274.281,527.077 272.71,528.572 270.99,529.882 C269.189,531.247 267.202,532.346 265.09,533.146 C262.913,533.98 260.542,534.395 257.98,534.395 C256.852,534.401 255.728,534.258 254.637,533.968 C253.6,533.7 252.636,533.2 251.82,532.505 C251.013,531.815 250.365,530.889 249.872,529.731 C249.379,528.57 249.137,527.115 249.137,525.367 C249.137,525.326 249.205,524.707 249.344,523.503 C249.486,522.303 249.932,520.414 250.687,517.827 C251.444,515.251 252.61,511.9 254.187,507.792 C255.771,503.681 257.996,498.702 260.879,492.846 C261.615,491.296 262.464,490.188 263.429,489.519 C264.343,488.864 265.438,488.512 266.562,488.512 C267.055,488.512 267.564,488.583 268.089,488.725 C268.619,488.869 269.108,489.09 269.566,489.396 C270.022,489.699 270.392,490.089 270.672,490.555 C270.951,491.022 271.093,491.56 271.093,492.171 C271.093,492.576 271.04,492.965 270.936,493.331 C270.757,494.024 270.381,494.928 269.806,496.044 C269.224,497.163 268.549,498.446 267.777,499.887 C266.948,501.438 266.132,502.996 265.33,504.558 C264.455,506.25 263.656,507.981 262.934,509.744 C262.197,511.527 261.564,513.349 261.036,515.206 C260.524,516.963 260.223,518.775 260.142,520.604 C260.142,521.337 260.317,522.008 260.668,522.618 C261.019,523.229 261.597,523.534 262.406,523.534 C264.688,523.534 266.865,522.8 268.937,521.339 C271.092,519.791 273.024,517.953 274.677,515.877 C276.452,513.67 278.045,511.322 279.442,508.857 C280.725,506.623 281.91,504.334 282.995,501.996 C283.662,500.613 284.252,499.125 284.76,497.542 C285.233,496.048 285.786,494.581 286.417,493.147 C286.933,491.935 287.625,490.805 288.47,489.794 C289.179,488.927 290.245,488.432 291.365,488.449 C292.632,488.449 293.631,488.921 294.37,489.854 C295.106,490.789 295.474,491.909 295.474,493.207 C295.474,493.94 295.24,494.949 294.764,496.23 C294.209,497.712 293.612,499.177 292.973,500.625 C292.201,502.388 291.42,504.147 290.629,505.902 C289.784,507.777 289.003,509.679 288.288,511.607 C287.591,513.466 286.992,515.36 286.495,517.282 C286.044,518.964 285.806,520.696 285.787,522.437 C285.787,523.9 286.557,524.636 288.103,524.636 C289.194,524.636 290.542,524.269 292.156,523.536 C293.773,522.806 295.469,521.776 297.24,520.454 C297.682,520.126 298.129,519.779 298.571,519.416 C299.068,517.424 299.646,515.576 300.319,513.896 C301.545,510.737 302.791,507.585 304.056,504.441 L307.535,495.834 L323.49,456.478 C324.121,454.894 324.972,453.775 326.041,453.125 C327.113,452.473 328.191,452.149 329.282,452.149 C330.362,452.147 331.41,452.512 332.254,453.185 C333.151,453.878 333.599,454.995 333.599,456.542 C333.599,457.275 333.449,458.047 333.151,458.86 C332.852,459.677 332.473,460.548 332.018,461.484 C331.142,463.399 330.095,465.735 328.886,468.502 C326.106,474.873 323.385,481.271 320.723,487.693 C319.268,491.211 317.844,494.639 316.458,497.974 C315.145,501.131 313.847,504.294 312.562,507.462 C311.515,510.053 310.469,512.645 309.429,515.239 C308.997,516.308 308.62,517.398 308.298,518.504 C307.955,519.581 307.769,520.702 307.747,521.832 C307.747,522.439 307.849,522.928 308.061,523.293 C308.27,523.658 308.674,523.844 309.274,523.844 C310.009,523.844 310.929,523.588 312.035,523.08 C313.277,522.498 314.473,521.824 315.614,521.064 C316.897,520.233 318.234,519.277 319.617,518.196 C321.018,517.108 322.396,515.99 323.75,514.843 C325.086,513.714 326.394,512.555 327.675,511.364 C328.807,510.314 329.922,509.247 331.02,508.163 C331.251,507.934 331.528,507.754 331.831,507.637 C332.408,505.955 332.945,504.257 333.438,502.549 C333.721,501.816 334.107,500.782 334.598,499.437 C335.094,498.088 335.656,496.765 336.282,495.471 C336.857,494.262 337.572,493.126 338.415,492.086 C339.204,491.131 340.056,490.652 340.972,490.652 C342.373,490.652 343.395,490.968 344.026,491.595 C344.658,492.229 344.973,493.153 344.973,494.375 C344.973,494.618 344.938,495.004 344.866,495.531 C344.721,496.66 344.519,497.78 344.263,498.888 C344.179,499.283 344.065,499.671 343.923,500.048 C345.267,498.617 346.671,497.242 348.132,495.929 C349.608,494.594 351.174,493.361 352.817,492.237 C354.37,491.174 356.028,490.273 357.767,489.552 C359.368,488.879 361.085,488.527 362.821,488.515 C363.982,488.515 365.132,488.678 366.271,489.004 C367.362,489.307 368.395,489.791 369.325,490.436 C370.222,491.071 370.953,491.862 371.512,492.817 C372.073,493.77 372.354,494.88 372.354,496.143 C372.354,497.811 371.925,499.591 371.064,501.48 C370.202,503.372 369.123,505.274 367.825,507.181 C366.514,509.111 365.109,510.974 363.613,512.767 C362.226,514.436 360.813,516.083 359.375,517.709 C358.262,518.963 357.155,520.223 356.056,521.49 C355.163,522.53 354.697,523.231 354.662,523.6 C354.662,524.087 354.822,524.482 355.136,524.789 C355.454,525.092 355.98,525.247 356.717,525.247 C357.315,525.247 358.192,524.919 359.35,524.269 C360.509,523.621 362.134,522.49 364.222,520.885 C366.918,518.785 369.569,516.628 372.173,514.416 C374.751,512.241 377.313,510.047 379.861,507.837 L394.721,381.686 L394.621,381.686 C379.548,388.745 337.21,396.203 287.327,396.203 C237.452,396.203 195.11,388.745 180.04,381.686 L179.913,381.686 L191.202,497.476 C191.807,495.465 192.475,493.474 193.204,491.505 C194.719,487.431 196.468,483.448 198.443,479.577 C200.379,475.779 202.541,472.101 204.92,468.564 C207.175,465.208 209.666,462.018 212.374,459.016 C214.837,456.266 217.551,453.753 220.483,451.511 C223.255,449.419 226.057,447.779 228.88,446.598 C231.707,445.42 234.507,444.828 237.282,444.828 C240.475,444.828 243.564,445.684 246.548,447.393 C249.533,449.101 252.321,451.866 254.923,455.692 C255.518,456.544 255.897,457.411 256.05,458.284 C256.211,459.157 256.289,459.98 256.289,460.754 C256.289,462.586 255.842,464.029 254.948,465.085 C254.051,466.144 252.99,466.672 251.762,466.672 C250.637,466.672 249.593,466.094 248.626,464.935 C247.662,463.777 246.581,462.118 245.388,459.962 C244.267,458.009 243.027,456.598 241.674,455.723 C240.371,454.861 238.842,454.404 237.28,454.409 C234.821,454.409 232.198,455.407 229.408,457.397 C226.616,459.392 223.851,462.027 221.115,465.3 C218.378,468.575 215.754,472.32 213.244,476.526 C210.753,480.694 208.528,485.015 206.581,489.462 C204.714,493.69 203.174,498.055 201.974,502.518 C200.832,506.81 200.261,510.666 200.261,514.082 C200.261,515.221 200.341,516.391 200.498,517.589 C200.635,518.715 200.937,519.815 201.394,520.854 C201.833,521.83 202.428,522.631 203.185,523.264 C203.94,523.894 204.896,524.207 206.053,524.207 C207.351,524.207 208.826,523.78 210.475,522.924 C212.126,522.074 213.839,520.953 215.611,519.572 C217.478,518.105 219.261,516.537 220.954,514.872 C222.698,513.176 224.367,511.406 225.958,509.566 C227.4,507.905 228.77,506.185 230.066,504.408 C231.259,502.761 232.155,501.327 232.753,500.107 L237.65,485.768 C238.244,484.226 239.026,483.127 239.992,482.473 C240.958,481.823 241.95,481.497 242.967,481.497 C243.458,481.497 243.948,481.581 244.441,481.742 C244.934,481.905 245.373,482.159 245.761,482.503 C246.149,482.85 246.455,483.296 246.68,483.845 C246.909,484.394 247.022,485.035 247.022,485.768 C247.022,487.72 246.845,489.548 246.494,491.259 C246.148,492.952 245.701,494.624 245.153,496.263 C244.598,497.918 243.991,499.556 243.335,501.174 C242.646,502.877 241.996,504.596 241.387,506.331 C241.248,506.533 240.995,507.173 240.625,508.25 C239.555,511.406 238.538,514.58 237.573,517.769 C236.944,519.825 236.312,521.879 235.677,523.933 C235.04,525.983 234.418,528.036 233.809,530.094 C232.866,533.273 231.935,536.456 231.016,539.642 C230.833,540.296 230.64,540.947 230.438,541.596 C230.223,542.341 229.941,543.065 229.596,543.759 C229.208,544.553 228.748,545.309 228.224,546.021 C227.736,546.693 227.151,547.288 226.488,547.787 C225.932,548.227 225.247,548.474 224.538,548.489 C223.414,548.489 222.6,548.125 222.089,547.393 C221.581,546.66 221.327,545.317 221.327,543.365 L221.327,542.509 C221.327,542.226 221.346,541.922 221.379,541.598 C221.412,540.946 221.68,539.723 222.171,537.932 C222.664,536.147 223.248,534.124 223.934,531.865 C224.617,529.605 225.355,527.267 226.144,524.847 C226.936,522.426 227.646,520.262 228.277,518.351 C226.344,520.457 224.324,522.482 222.223,524.42 C220.116,526.376 217.882,528.191 215.535,529.851 C213.372,531.39 211.061,532.709 208.635,533.788 C206.317,534.803 204.089,535.313 201.947,535.313 C199.491,535.313 197.376,534.781 195.601,533.724 C195.28,533.534 194.984,533.318 194.681,533.105 L201.854,606.678 L206.03,613.215 C218.282,620.92 249.562,626.401 286.312,626.424 C319.788,626.401 348.716,621.851 362.87,615.214 L368.21,606.678 L378.512,519.228 C377.659,519.993 376.832,520.736 376.039,521.461 C373.374,523.913 370.587,526.227 367.688,528.396 z" fill-opacity="0" stroke="#000000" stroke-width="1.153"/>
      <path d="M285.331,361.043 C225.943,361.043 177.801,366.503 177.801,373.24 C177.801,379.97 225.943,389.87 285.331,389.87 C344.725,389.87 392.863,379.97 392.863,373.24 C392.863,366.501 344.725,361.043 285.331,361.043 z M304.508,380.283 C297.63,380.283 291.516,378.251 291.516,376.497 C291.516,375.824 292.419,375.114 293.917,374.487 C294.747,372.993 299.163,371.852 304.508,371.852 C309.765,371.852 314.136,372.96 315.064,374.419 C316.709,375.06 317.724,375.801 317.724,376.499 C317.724,378.251 311.385,380.283 304.508,380.283 z" fill="#FFFFFF"/>
      <path d="M287.271,362.983 C227.883,362.983 179.741,368.443 179.741,375.18 C179.741,381.911 227.883,391.81 287.271,391.81 C346.665,391.81 394.803,381.911 394.803,375.18 C394.803,368.441 346.665,362.983 287.271,362.983 z M306.449,382.223 C299.57,382.223 293.456,380.192 293.456,378.438 C293.456,377.765 294.359,377.054 295.857,376.428 C296.687,374.934 301.103,373.793 306.449,373.793 C311.705,373.793 316.076,374.901 317.004,376.36 C318.649,377 319.664,377.741 319.664,378.44 C319.664,380.192 313.325,382.223 306.449,382.223 z" fill-opacity="0" stroke="#000000" stroke-width="1.153"/>
      <path d="M306.449,380.081 C312.382,380.081 317.19,378.675 317.19,376.936 C317.184,376.73 317.12,376.53 317.004,376.36 C314.52,375.39 310.587,374.652 306.449,374.652 C302.209,374.652 298.264,375.425 295.857,376.43 C295.763,376.584 295.711,376.76 295.703,376.94 C295.703,378.675 300.511,380.081 306.449,380.081 z" fill-opacity="0" stroke="#000000" stroke-width="1.153"/>
      <path d="M382.861,263.651 L368.495,253.09 L310.663,312.619 L294.171,374.916 L315.013,374.916 L331.141,319.657 z" fill="#FFFFFF"/>
      <path d="M384.801,265.591 L370.435,255.03 L312.603,314.56 L296.111,376.856 L316.953,376.856 L333.081,321.597 z" fill-opacity="0" stroke="#000000" stroke-width="1.153"/>
    </g>
    <g clip-path="url(#Clip_1)">
      <path d="M1640.829,511.703 C1640.829,511.703 1635.542,524.604 1632.645,531.442 C1629.502,538.881 1617.519,542.578 1617.519,542.578 C1617.519,542.578 1623.731,536.203 1623.731,520.056 C1623.731,513.281 1632.67,510.587 1632.67,510.587 L1640.829,511.703 z M1616.967,645.827 C1616.967,645.827 1620.829,668.928 1636.302,668.928 C1649.45,668.928 1653.325,649.414 1653.325,645.382 L1616.967,645.827 z M1564.326,388.647 L1562.533,387.537 C1557.256,387.711 1564.326,388.647 1564.326,388.647 z" fill="#FFFFFF"/>
      <path d="M1625.554,503.002 C1625.554,503.002 1617.206,506.734 1607.872,503.696 C1595.656,499.708 1594.844,487.281 1594.844,487.281 C1594.844,487.281 1587.348,508.796 1608.362,512.937 C1625.214,516.26 1635.183,506.706 1635.183,506.706 L1625.554,503.002 z M1631.489,393.88 C1630.592,375.428 1646.053,360.734 1651.41,360.106 C1651.708,363.233 1651.114,375.428 1656.47,379.179 C1658.031,369.218 1663.303,358.237 1684.123,351.039 C1679.666,362.612 1683.531,372.304 1685.37,376.794 C1699.588,364.168 1709.169,366.257 1709.169,366.257 C1709.169,366.257 1699.288,382.931 1703.154,393.877 C1674.609,391.685 1631.628,396.843 1631.489,393.88 z M1570.975,421.988 C1564.163,416.461 1569.243,411.331 1568.704,405.049 C1568.411,401.708 1568.14,398.555 1567.013,396.814 C1560.747,387.134 1545.962,384.197 1545.815,384.167 L1538.876,382.838 L1543.47,377.581 C1544.063,376.898 1562.93,359.291 1592.121,368.51 C1612.543,374.953 1627.658,396.801 1628.222,397.685 L1617.983,402.393 C1617.864,402.208 1605.911,381.671 1588.393,376.147 C1574.23,371.676 1561.177,375.931 1555.587,378.717 C1561.531,381.037 1569.301,385.264 1573.982,392.495 C1576.192,395.91 1576.562,400.213 1576.923,404.376 C1577.397,409.889 1577.844,415.092 1581.989,418.463 L1570.975,421.988 z" fill="#FFFFFF"/>
      <path d="M1629.164,504.821 C1629.353,505.166 1629.45,505.357 1629.45,505.357 C1629.45,505.357 1615.407,515.665 1601.018,505.204 C1593.315,499.599 1594.043,485.735 1596.403,479.857 C1601.998,481.103 1607.318,483.366 1612.096,486.533 C1606.598,481.733 1601.783,478.198 1601.798,478.118 L1595.547,476.386 L1583.403,472.312 C1583.249,473.218 1578.816,493.532 1591.603,507.375 C1597.273,513.512 1623.844,527.255 1636.458,503.755 L1629.164,504.821 z" fill="#FFFFFF"/>
      <path d="M1627.849,506.331 C1635.757,518.101 1655.7,511.375 1655.357,498.931 C1655.357,498.931 1642.029,506.126 1630.255,492.88 C1623.38,485.144 1601.352,463.818 1571.479,470.905 C1592.108,475.343 1619.42,493.782 1627.849,506.331 z" fill="#FFFFFF"/>
      <path d="M1568.687,539.549 C1570.588,540.625 1577.296,547.42 1577.303,557.584 C1577.303,562.679 1576.782,588.281 1574.203,603.921 C1578.083,606.386 1580.781,606.91 1584.645,609.422 C1586.578,591.308 1587.964,565.054 1587.318,554.456 C1586.578,542.376 1579.967,534.269 1573.835,530.809 C1571.916,529.73 1569.907,528.667 1567.889,527.598 C1557.385,522.044 1546.526,516.304 1546.526,506.496 C1546.526,498.826 1549.572,496.426 1552.803,493.882 L1553.147,493.606 C1555.291,491.914 1557.715,489.996 1559.149,486.845 C1563.067,478.225 1563.708,456.272 1559.149,450.699 C1556.878,447.922 1550.789,438.585 1552.538,432.307 C1553.206,429.914 1554.746,428.14 1557.256,426.881 C1559.912,425.551 1563.502,424.875 1567.919,424.875 C1576.597,424.875 1586.22,427.459 1591.184,428.997 C1608.926,434.496 1630.332,450.357 1636.47,455.087 L1636.769,455.31 L1640.694,457.981 L1638.239,453.961 C1638.086,453.71 1622.533,428.69 1594.722,419.519 C1589.311,417.735 1578.682,414.739 1568.237,414.739 C1562.019,414.739 1556.739,415.8 1552.562,417.896 C1547.469,420.443 1544.019,424.508 1542.587,429.649 C1539.075,442.252 1550.513,456.28 1550.903,456.729 C1552.237,459.059 1552.801,475.974 1549.721,482.744 C1549.296,483.68 1548.135,484.597 1546.665,485.758 C1546.203,486.125 1545.69,486.501 1545.144,486.906 C1540.798,490.116 1534.227,494.965 1534.227,506.14 C1534.227,521.435 1550.069,529.727 1562.801,536.393 C1564.891,537.492 1566.885,538.531 1568.685,539.549 z M1638.851,507.024 L1627.849,506.331 C1627.849,506.331 1630.659,511.181 1632.483,517.454 C1634.54,524.548 1630.602,534.917 1630.602,534.917 C1630.602,534.917 1645.271,518.669 1638.849,507.024 z M1625.116,691.804 C1585.957,688.861 1572.182,652.664 1572.182,645.124 L1582.408,645.129 L1577.293,645.124 L1582.408,645.124 C1582.458,648.383 1592.865,679.348 1625.899,681.832 L1625.116,691.804 z" fill="#FFFFFF"/>
      <path d="M1602.274,646.12 C1601.948,645.146 1601.665,644.158 1601.427,643.159 C1601.154,642.07 1599.807,638.98 1601.469,642.506 C1601.06,641.62 1600.754,640.69 1600.557,639.735 C1574.101,639.703 1551.085,621.934 1555.532,584.578 C1552.069,580.081 1547.221,593.65 1547.221,593.65 C1547.221,593.65 1533.976,631.266 1568.182,645.847 C1579.577,650.711 1589.648,654.193 1592.026,652.789 C1596.977,653.77 1601.444,650.398 1603.121,648.177 C1602.808,647.504 1602.525,646.818 1602.274,646.12 z" fill="#FFFFFF"/>
      <path d="M1613.634,621.536 C1613.676,618.383 1614.334,615.328 1615.892,612.286 C1616.003,612.076 1616.126,611.876 1616.247,611.671 C1606.065,611.586 1594.341,610.632 1584.359,606.724 C1573.385,602.428 1559.658,587.74 1557.301,570.481 C1557.301,570.481 1536.634,586.08 1542.707,619.47 C1548.406,650.824 1575.226,661.047 1605.815,662.778 C1605.834,662.572 1602.374,655.589 1603.467,651.313 C1586.098,652.547 1566.675,645.983 1557.301,630.89 C1548.717,617.077 1551.124,593.492 1554.652,590.036 C1563.258,616.602 1594.222,622.001 1613.638,621.536 z" fill="#FFFFFF"/>
      <path d="M1616.839,602.52 C1611.338,618.321 1600.095,631.107 1600.095,631.107 C1600.095,631.107 1615.559,630.421 1616.413,627.743 C1617.045,625.768 1630.379,595.238 1635.496,559.469 C1630.682,567.206 1617.311,601.166 1616.839,602.52 z M1772.617,388.647 L1774.411,387.537 C1779.688,387.711 1772.617,388.647 1772.617,388.647 z M1711.383,503.002 C1711.383,503.002 1719.737,506.734 1729.065,503.696 C1741.286,499.708 1742.1,487.281 1742.1,487.281 C1742.1,487.281 1749.591,508.796 1728.58,512.937 C1711.728,516.26 1701.758,506.706 1701.758,506.706 L1711.383,503.004 z" fill="#FFFFFF"/>
      <path d="M1765.964,421.988 C1772.778,416.461 1767.703,411.331 1768.242,405.049 C1768.528,401.708 1768.799,398.555 1769.927,396.814 C1776.195,387.134 1790.98,384.197 1791.131,384.167 L1798.073,382.838 L1793.477,377.581 C1792.881,376.898 1774.018,359.291 1744.819,368.51 C1724.401,374.953 1709.288,396.801 1708.724,397.685 L1718.96,402.393 C1719.084,402.208 1731.035,381.671 1748.557,376.147 C1762.716,371.676 1775.77,375.929 1781.357,378.717 C1775.415,381.037 1767.641,385.264 1762.96,392.495 C1760.751,395.911 1760.383,400.213 1760.023,404.376 C1759.547,409.889 1759.099,415.092 1754.952,418.463 L1765.963,421.988 z M1707.78,504.821 C1707.591,505.166 1707.494,505.357 1707.494,505.357 C1707.494,505.357 1721.532,515.665 1735.919,505.204 C1743.629,499.598 1742.9,485.735 1740.537,479.855 C1734.942,481.104 1729.624,483.367 1724.846,486.533 C1730.346,481.733 1735.158,478.198 1735.142,478.118 L1741.392,476.386 L1753.537,472.317 C1753.693,473.221 1758.122,493.536 1745.33,507.377 C1739.665,513.514 1713.094,527.26 1700.48,503.758 L1707.777,504.821 z" fill="#FFFFFF"/>
      <path d="M1709.091,506.331 C1701.183,518.101 1681.244,511.375 1681.589,498.931 C1681.589,498.931 1694.91,506.126 1706.687,492.88 C1713.563,485.144 1735.594,463.818 1765.465,470.905 C1744.838,475.343 1717.524,493.782 1709.091,506.331 z" fill="#FFFFFF"/>
      <path d="M1768.26,539.549 C1766.356,540.625 1759.646,547.42 1759.646,557.584 C1759.641,562.679 1760.162,588.281 1762.744,603.921 C1758.863,606.386 1756.163,606.91 1752.301,609.422 C1750.366,591.308 1748.975,565.054 1749.628,554.456 C1750.364,542.376 1756.975,534.269 1763.104,530.809 C1765.027,529.73 1767.034,528.667 1769.057,527.598 C1779.561,522.044 1790.421,516.304 1790.421,506.496 C1790.421,498.826 1787.37,496.426 1784.143,493.882 L1783.799,493.606 C1781.658,491.914 1779.23,489.996 1777.797,486.844 C1773.879,478.223 1773.238,456.272 1777.794,450.699 C1780.066,447.922 1786.16,438.585 1784.408,432.307 C1783.737,429.914 1782.194,428.138 1779.685,426.881 C1777.03,425.551 1773.445,424.874 1769.024,424.874 C1760.353,424.874 1750.722,427.459 1745.763,428.997 C1728.019,434.496 1706.612,450.357 1700.47,455.087 L1700.173,455.31 L1696.245,457.981 L1698.702,453.961 C1698.856,453.71 1714.406,428.69 1742.217,419.519 C1747.628,417.735 1758.255,414.739 1768.704,414.739 C1774.923,414.739 1780.195,415.8 1784.378,417.895 C1789.471,420.443 1792.918,424.508 1794.353,429.649 C1797.864,442.252 1786.426,456.28 1786.036,456.729 C1784.702,459.059 1784.137,475.974 1787.213,482.744 C1787.636,483.68 1788.799,484.597 1790.274,485.758 C1790.734,486.125 1791.245,486.501 1791.794,486.906 C1796.142,490.116 1802.711,494.965 1802.711,506.14 C1802.711,521.435 1786.868,529.727 1774.14,536.393 C1772.05,537.492 1770.053,538.532 1768.255,539.547 z" fill="#FFFFFF"/>
      <path d="M1749.358,420.188 C1746.84,416.013 1740.394,407.951 1725.541,400.866 C1708.963,392.962 1689.78,388.948 1668.511,388.942 L1668.511,388.936 L1668.428,388.936 L1668.428,388.94 C1647.157,388.948 1627.969,392.962 1611.397,400.865 C1596.543,407.951 1590.103,416.009 1587.581,420.185 L1586.498,421.586 L1599.216,424.357 L1599.623,423.857 L1599.834,423.402 C1600.031,422.578 1601.735,418.14 1615.919,411.375 C1631.077,404.14 1648.762,400.473 1668.47,400.466 C1688.178,400.473 1705.854,404.14 1721.012,411.375 C1735.194,418.14 1736.903,422.578 1737.099,423.402 L1737.313,423.857 L1737.71,424.357 L1750.433,421.586 L1749.357,420.188 z M1693.496,660.296 C1688.182,654.739 1685.039,648.758 1684.28,646.923 C1683.845,645.874 1683.348,643.881 1684.908,642.312 C1686.121,641.101 1688.229,640.478 1691.171,640.478 L1695.701,640.478 L1709.226,640.48 L1711.978,640.485 C1715.845,640.485 1717.75,641.566 1718.667,642.473 C1720.001,643.794 1720.212,645.631 1719.293,647.931 C1716.833,654.075 1711.25,659.089 1709.599,660.478 C1707.439,662.304 1704.336,663.387 1701.288,663.387 C1698.167,663.387 1695.398,662.287 1693.494,660.296 z M1698.095,507.024 L1709.091,506.331 C1709.091,506.331 1706.28,511.181 1704.46,517.454 C1702.401,524.548 1706.341,534.917 1706.341,534.917 C1706.341,534.917 1691.671,518.669 1698.093,507.024 z M1668.473,468.598 C1661.462,468.598 1652.319,468.408 1645.46,463.586 C1645.46,463.586 1654.441,478.99 1668.461,478.99 L1668.473,477.042 L1668.483,478.99 C1682.508,478.99 1691.487,463.588 1691.487,463.588 C1684.627,468.409 1675.479,468.598 1668.473,468.598 z" fill="#FFFFFF"/>
      <path d="M1687.78,468.523 C1680.746,472.689 1674.465,474.132 1668.473,474.257 C1662.48,474.132 1656.2,472.689 1649.167,468.523 C1649.167,468.523 1659.408,480.751 1668.421,480.845 L1668.421,480.851 L1668.473,480.85 L1668.523,480.851 L1668.523,480.848 C1677.532,480.752 1687.78,468.525 1687.78,468.525 z M1711.827,691.804 L1711.042,681.832 C1744.071,679.347 1754.478,648.383 1754.53,645.124 L1764.758,645.124 C1764.761,652.661 1750.978,688.861 1711.827,691.804 z" fill="#FFFFFF"/>
      <path d="M1734.665,646.12 C1735.009,645.148 1735.26,644.157 1735.512,643.159 C1735.788,642.07 1737.137,638.98 1735.47,642.506 C1735.899,641.603 1736.177,640.674 1736.384,639.735 C1762.838,639.703 1785.854,621.934 1781.404,584.578 C1784.866,580.081 1789.72,593.65 1789.72,593.65 C1789.72,593.65 1802.963,631.266 1768.761,645.847 C1757.363,650.711 1747.295,654.193 1744.917,652.789 C1739.961,653.77 1735.494,650.398 1733.822,648.177 C1734.135,647.494 1734.428,646.811 1734.665,646.12 z" fill="#FFFFFF"/>
      <path d="M1723.303,621.536 C1723.292,618.318 1722.52,615.148 1721.049,612.286 C1720.937,612.076 1720.813,611.876 1720.696,611.671 C1730.876,611.586 1742.602,610.632 1752.585,606.724 C1763.556,602.428 1777.283,587.74 1779.641,570.481 C1779.641,570.481 1800.309,586.08 1794.235,619.47 C1788.532,650.824 1761.713,661.047 1731.127,662.778 C1731.109,662.572 1734.567,655.589 1733.475,651.313 C1750.838,652.547 1770.26,645.983 1779.641,630.89 C1788.222,617.077 1785.815,593.492 1782.286,590.036 C1773.685,616.602 1742.719,622.001 1723.3,621.536 z" fill="#FFFFFF"/>
      <path d="M1735.655,629.402 C1732.001,625.538 1725.283,620.928 1709.79,620.928 L1668.525,620.903 L1668.424,620.903 L1627.152,620.928 C1611.665,620.928 1604.945,625.538 1601.29,629.4 C1595.962,635.024 1595.127,642.848 1598.813,652.63 C1608.603,678.659 1622.362,705.106 1668.421,705.143 L1668.421,705.148 L1668.473,705.143 L1668.523,705.148 L1668.523,705.143 C1714.577,705.104 1728.339,678.659 1738.132,652.627 C1741.815,642.846 1740.978,635.024 1735.658,629.4 z M1728.483,650.803 C1723.82,663.874 1711.281,695.516 1668.47,695.571 C1625.653,695.516 1613.122,663.876 1608.456,650.803 C1605.877,643.549 1606.073,638.184 1609.062,634.851 C1611.101,632.573 1615.792,629.852 1626.48,629.852 L1637.644,629.847 C1645.88,629.84 1656.224,629.832 1668.473,629.827 C1680.716,629.832 1691.064,629.84 1699.298,629.847 L1710.461,629.852 C1721.151,629.852 1725.839,632.57 1727.881,634.851 C1730.868,638.189 1731.067,643.549 1728.485,650.803 z" fill="#FFFFFF"/>
      <path d="M1720.1,602.52 C1725.604,618.321 1736.846,631.111 1736.846,631.111 C1736.846,631.111 1721.38,630.423 1720.528,627.743 C1719.899,625.772 1706.563,595.238 1701.447,559.469 C1706.257,567.206 1719.628,601.166 1720.1,602.52 z" fill="#FFFFFF"/>
    </g>
    <g clip-path="url(#Clip_2)">
      <path d="M694.711,436.499 L1225.289,436.499 L1225.289,614.629 L960,614.629 L960,643.501 L842.336,643.501 L842.336,614.629 L694.711,614.629 L694.711,436.499 z M724.672,584.669 L783.504,584.669 L783.504,495.331 L812.92,495.331 L812.92,584.669 L842.336,584.669 L842.336,467.005 L724.672,467.005 L724.672,584.669 z M871.207,466.46 L871.752,615.174 L930.039,615.174 L930.039,585.758 L988.871,585.758 L988.871,466.46 L871.207,466.46 z M929.495,494.787 L960.545,494.787 L960.545,555.253 L929.495,555.253 L929.495,494.787 z M1018.832,466.46 L1018.832,584.124 L1077.664,584.124 L1077.664,495.331 L1107.08,495.331 L1107.08,583.579 L1136.496,583.579 L1136.496,495.876 L1165.912,495.876 L1165.912,584.124 L1195.328,584.124 L1195.328,466.46 L1018.832,466.46 z" fill="#FFFFFF"/>
    </g>
  </g>
</svg>
