<?xml version="1.0" encoding="UTF-8"?>
<!DOCTYPE svg PUBLIC "-//W3C//DTD SVG 1.1//EN" "http://www.w3.org/Graphics/SVG/1.1/DTD/svg11.dtd">
<svg version="1.1" xmlns="http://www.w3.org/2000/svg" xmlns:xlink="http://www.w3.org/1999/xlink" x="0" y="0" width="1920" height="1080" viewBox="0, 0, 1920, 1080">
  <g id="Background">
    <rect x="0" y="0" width="1920" height="1080" fill="#DFDED1"/>
  </g>
  <g id="Layer_1"/>
  <g id="Mobile_viewport">
    <g>
      <path d="M1503.865,331.898 L1779.493,331.898 L1779.493,1556.045 L1503.865,1556.045 L1503.865,331.898 z" fill="#FFFFFF"/>
      <path d="M1518.845,1183.947 L1760.918,1183.947 L1760.918,1469.162 L1518.845,1469.162 L1518.845,1183.947 z" fill="#C1CCB6"/>
      <path d="M1518.845,346.278 L1760.918,346.278 L1760.918,486.489 L1518.845,486.489 L1518.845,346.278 z" fill="#5FA316"/>
      <path d="M1519.444,1485.34 L1760.319,1485.34 L1760.319,1535.672 L1519.444,1535.672 L1519.444,1485.34 z" fill="#5FA316"/>
      <path d="M1526.035,540.416 L1760.045,540.416 L1760.045,558.392 L1526.035,558.392 L1526.035,540.416 z" fill="#949D8B"/>
      <path d="M1526.035,572.772 L1723.169,572.772 L1723.169,590.748 L1526.035,590.748 L1526.035,572.772 z" fill="#949D8B"/>
      <path d="M1526.035,655.461 L1760.045,655.461 L1760.045,673.436 L1526.035,673.436 L1526.035,655.461 z" fill="#C1CCB6"/>
      <path d="M1526.035,686.019 L1746.573,686.019 L1746.573,703.995 L1526.035,703.995 L1526.035,686.019 z" fill="#C1CCB6"/>
      <path d="M1526.908,717.477 L1760.918,717.477 L1760.918,735.453 L1526.908,735.453 L1526.908,717.477 z" fill="#C1CCB6"/>
      <path d="M1526.908,748.036 L1747.446,748.036 L1747.446,766.011 L1526.908,766.011 L1526.908,748.036 z" fill="#C1CCB6"/>
      <path d="M1526.908,779.493 L1760.918,779.493 L1760.918,797.469 L1526.908,797.469 L1526.908,779.493 z" fill="#C1CCB6"/>
      <path d="M1526.908,810.052 L1747.446,810.052 L1747.446,828.028 L1526.908,828.028 L1526.908,810.052 z" fill="#C1CCB6"/>
      <path d="M1526.908,846.003 L1760.918,846.003 L1760.918,863.979 L1526.908,863.979 L1526.908,846.003 z" fill="#C1CCB6"/>
      <path d="M1526.908,876.562 L1747.446,876.562 L1747.446,894.538 L1526.908,894.538 L1526.908,876.562 z" fill="#C1CCB6"/>
      <path d="M1526.908,912.513 L1760.918,912.513 L1760.918,930.489 L1526.908,930.489 L1526.908,912.513 z" fill="#C1CCB6"/>
      <path d="M1526.908,943.072 L1747.446,943.072 L1747.446,961.048 L1526.908,961.048 L1526.908,943.072 z" fill="#C1CCB6"/>
      <path d="M1527.781,974.53 L1761.791,974.53 L1761.791,992.506 L1527.781,992.506 L1527.781,974.53 z" fill="#C1CCB6"/>
      <path d="M1527.781,1005.089 L1748.319,1005.089 L1748.319,1023.064 L1527.781,1023.064 L1527.781,1005.089 z" fill="#C1CCB6"/>
      <path d="M1527.781,1036.546 L1761.791,1036.546 L1761.791,1054.522 L1527.781,1054.522 L1527.781,1036.546 z" fill="#C1CCB6"/>
      <path d="M1527.781,1067.105 L1748.319,1067.105 L1748.319,1085.08 L1527.781,1085.08 L1527.781,1067.105 z" fill="#C1CCB6"/>
      <path d="M1527.781,1103.056 L1761.791,1103.056 L1761.791,1121.032 L1527.781,1121.032 L1527.781,1103.056 z" fill="#C1CCB6"/>
      <path d="M1527.781,1133.615 L1748.319,1133.615 L1748.319,1151.591 L1527.781,1151.591 L1527.781,1133.615 z" fill="#C1CCB6"/>
      <path d="M1526.035,606.926 L1701.598,606.926 L1701.598,624.902 L1526.035,624.902 L1526.035,606.926 z" fill="#949D8B"/>
    </g>
    <path d="M1443.223,682.646 L1848.378,682.646 L1848.378,1556.045 L1443.223,1556.045 L1443.223,682.646 z" fill="#DFDED1" opacity="0.661"/>
    <path d="M1585.223,682.646 L1706.378,682.646 L1706.378,796.045 L1585.223,796.045 L1585.223,682.646 z" fill="#DFDED1"/>
    <path d="M1763.43,263.19 L1520.963,263.19 C1492.387,263.19 1469.006,286.062 1469.006,314.017 L1469.006,754.523 C1469.006,782.478 1492.387,805.351 1520.963,805.351 L1763.43,805.351 C1792.006,805.351 1815.387,782.478 1815.387,754.523 L1815.387,314.017 C1815.387,286.062 1792.006,263.19 1763.43,263.19 z M1572.92,288.603 L1711.473,288.603 L1711.473,305.546 L1572.92,305.546 L1572.92,288.603 z M1642.196,771.466 C1623.059,771.466 1607.558,756.302 1607.558,737.581 C1607.558,718.859 1623.059,703.695 1642.196,703.695 C1661.334,703.695 1676.834,718.859 1676.834,737.581 C1676.834,756.302 1661.334,771.466 1642.196,771.466 z M1780.749,669.81 L1503.644,669.81 L1503.644,330.96 L1780.749,330.96 L1780.749,669.81 z" fill="#48440D"/>
  </g>
  <g id="Mobile">
    <g>
      <path d="M138.091,329.783 L417.024,329.783 L417.024,672.411 L138.091,672.411 L138.091,329.783 z" fill="#FFFFFF"/>
      <path d="M142.578,380.401 L215.094,380.401 L215.094,518.252 L142.578,518.252 L142.578,380.401 z" fill="#C1CCB6"/>
      <path d="M142.578,334.091 L411.819,334.091 L411.819,376.093 L142.578,376.093 L142.578,334.091 z" fill="#5FA316"/>
      <path d="M220.658,380.401 L411.819,380.401 L411.819,518.252 L220.658,518.252 L220.658,380.401 z" fill="#FFFFFF"/>
      <path d="M142.578,523.098 L411.819,523.098 L411.819,538.176 L142.578,538.176 L142.578,523.098 z" fill="#5FA316"/>
      <path d="M231.427,392.247 L399.793,392.247 L399.793,397.632 L231.427,397.632 L231.427,392.247 z" fill="#949D8B"/>
      <path d="M231.428,401.94 L365.868,401.94 L365.868,407.325 L231.428,407.325 L231.428,401.94 z" fill="#949D8B"/>
      <path d="M231.427,421.325 L399.793,421.325 L399.793,426.71 L231.427,426.71 L231.427,421.325 z" fill="#C1CCB6"/>
      <path d="M231.427,430.479 L390.1,430.479 L390.1,435.864 L231.427,435.864 L231.427,430.479 z" fill="#C1CCB6"/>
      <path d="M232.056,439.903 L400.421,439.903 L400.421,445.288 L232.056,445.288 L232.056,439.903 z" fill="#C1CCB6"/>
      <path d="M232.056,449.057 L390.728,449.057 L390.728,454.442 L232.056,454.442 L232.056,449.057 z" fill="#C1CCB6"/>
      <path d="M232.056,458.48 L400.421,458.48 L400.421,463.865 L232.056,463.865 L232.056,458.48 z" fill="#C1CCB6"/>
      <path d="M232.056,467.635 L390.728,467.635 L390.728,473.02 L232.056,473.02 L232.056,467.635 z" fill="#C1CCB6"/>
      <path d="M232.056,478.404 L400.421,478.404 L400.421,483.789 L232.056,483.789 L232.056,478.404 z" fill="#C1CCB6"/>
      <path d="M232.056,487.559 L390.728,487.559 L390.728,492.943 L232.056,492.943 L232.056,487.559 z" fill="#C1CCB6"/>
    </g>
    <path d="M400.5,260.357 L155.5,260.357 C126.625,260.357 103,283.469 103,311.716 L103,756.825 C103,785.072 126.625,808.183 155.5,808.183 L400.5,808.183 C429.375,808.183 453,785.072 453,756.825 L453,311.716 C453,283.469 429.375,260.357 400.5,260.357 z M208,286.036 L348,286.036 L348,303.156 L208,303.156 L208,286.036 z M278,773.944 C258.662,773.944 243,758.622 243,739.705 C243,720.788 258.662,705.466 278,705.466 C297.337,705.466 313,720.788 313,739.705 C313,758.622 297.337,773.944 278,773.944 z M418,671.227 L138,671.227 L138,328.835 L418,328.835 L418,671.227 z" fill="#48440D"/>
  </g>
  <g id="Desktop">
    <text transform="matrix(1, 0, 0, 1, 969, 571.833)">
      <tspan x="-258.782" y="-141.5" font-family="Inconsolata" font-size="40" fill="#38350D">&lt;meta name="viewport" </tspan>
      <tspan x="-258.782" y="-97.5" font-family="Inconsolata" font-size="40" fill="#38350D">  content="</tspan>
      <tspan x="-258.782" y="-53.5" font-family="Inconsolata" font-size="40" fill="#38350D">    width=device-width, </tspan>
      <tspan x="-258.782" y="-9.5" font-family="Inconsolata" font-size="40" fill="#38350D">    initial-scale=1"&gt;</tspan>
      <tspan x="-258.782" y="78.5" font-family="Inconsolata" font-size="40" fill="#38350D">@-ms-viewport { </tspan>
      <tspan x="-258.782" y="122.5" font-family="Inconsolata" font-size="40" fill="#38350D">  width: device-width; </tspan>
      <tspan x="-258.782" y="166.5" font-family="Inconsolata" font-size="40" fill="#38350D">}</tspan>
    </text>
  </g>
  <g id="Arrows">
    <g>
      <path d="M507.5,533.27 L595.31,535.503" fill-opacity="0" stroke="#8F893D" stroke-width="10"/>
      <path d="M595.096,543.9 L617.703,536.072 L595.523,527.105 z" fill="#8F893D" fill-opacity="1" stroke="#8F893D" stroke-width="10" stroke-opacity="1"/>
    </g>
    <g>
      <path d="M1281.5,533.27 L1369.31,535.503" fill-opacity="0" stroke="#8F893D" stroke-width="10"/>
      <path d="M1369.096,543.9 L1391.703,536.072 L1369.523,527.105 z" fill="#8F893D" fill-opacity="1" stroke="#8F893D" stroke-width="10" stroke-opacity="1"/>
    </g>
  </g>
</svg>
